<svg xmlns="http://www.w3.org/2000/svg" viewBox="0 0 72 72" enable-background="new 0 0 72 72"><path fill="#fff" d="M36 .9C16.1.9 0 17 0 36.9c0 15.8 10.2 29.3 24.6 34.2 1.8.3 2.3-.9 2.3-1.8v-6.1c-10 2-12-4.7-12-4.7-1.8-4.1-4.1-5.3-4.1-5.3-3.2-2.3.3-2 .3-2 3.5.3 5.6 3.8 5.6 3.8 3.2 5.6 8.5 3.8 10.5 2.9.3-2.3 1.2-3.8 2.3-4.7-7.9-.9-16.4-4.1-16.4-17.9 0-3.8 1.5-7 3.8-9.7-.6-1.5-1.8-5 0-10 0 0 2.9-.9 10 3.8 2.9-.9 5.9-1.2 9.1-1.2 2.9 0 6.1.3 9.1 1.2 6.7-4.7 10-3.8 10-3.8 1.8 5 .6 8.5.3 9.7 2.3 2.6 3.8 5.9 3.8 9.7 0 13.8-8.5 17-16.4 17.9 1.2 1.2 2.3 3.2 2.3 6.7v10c0 .9.6 2 2.3 1.8C61.8 66.7 72 53.3 72 37.2 72 17 55.9.9 36 .9z"/></svg>