<svg xmlns="http://www.w3.org/2000/svg" viewBox="0 0 72 72" enable-background="new 0 0 72 72"><path fill="#fff" d="M72 13.4c-2.7 1.2-5.7 2-8.6 2.5 3.2-1.7 5.4-4.7 6.6-8.4-2.9 1.7-6.1 2.9-9.3 3.7-2.7-3-6.6-4.7-11.1-4.7-8.1 0-15 6.6-15 15 0 1.2.2 2.2.5 3.4-12.2-.7-23.3-6.6-30.4-15.7-1.5 2.2-2.2 4.7-2.2 7.6 0 5.2 2.7 9.8 6.6 12.3-2.5 0-4.7-.7-6.6-2v.2c0 7.1 5.2 13.3 12 14.5-1.2.2-2.5.5-3.9.5-1 0-2 0-2.7-.2 2 5.9 7.4 10.3 14 10.3-5.2 3.9-11.5 6.4-18.4 6.4-1.2 0-2.5 0-3.4-.2 6.1 4.4 14 6.9 22.4 6.9 27.3 0 42.3-22.6 42.3-42.3v-2c3-2.2 5.5-4.6 7.2-7.8z"/></svg>