<svg xmlns="http://www.w3.org/2000/svg" viewBox="0 0 72 72" enable-background="new 0 0 72 72"><pattern x="-90" y="108" width="69" height="69" patternUnits="userSpaceOnUse" viewBox="2.1 -70.9 69 69" overflow="visible"><path fill="none" d="M71.1-1.9h-69v-69h69z"/><path fill="#F5BB60" d="M71.1-1.9h-69v-69h69z"/><g fill="#fff"><path d="M61.8-71.7v.2c-.1.1-.1.1-.2.1-.1.1-.1.3-.1.4-.2.1 0 .2 0 .3v.2c0 .1 0 .3.1.4.1.2.3.4.4.5.2.1.4.6.6.6.2 0 .4-.1.5-.1.2 0 .4 0 .6-.1.2-.1.1-.3.3-.5.1-.1.3 0 .4-.1.2-.1.3-.3.4-.5v-.2c0-.1.1-.2.1-.3 0-.1-.1-.1-.1-.2v-.3c0-.2 0-.4-.1-.5-.4-.7-1.2-.9-2-.8-.2 0-.3.1-.4.2-.2.1-.1.2-.3.2-.1 0-.2.1-.2.2v.3c0 .1 0 .1 0 0M54.1-71.7v.2c-.1.1-.1.1-.2.1-.1.1-.1.3-.1.4-.2.1 0 .2 0 .3v.2c0 .1 0 .3.1.4.1.2.3.4.4.5.2.1.4.6.6.6.2 0 .4-.1.5-.1.2 0 .4 0 .6-.1.2-.1.1-.3.3-.5.1-.1.3 0 .4-.1.2-.1.3-.3.4-.5v-.2c0-.1.1-.2.1-.3 0-.1-.1-.1-.1-.2v-.3c0-.2 0-.4-.1-.5-.4-.7-1.2-.9-2-.8-.2 0-.3.1-.4.2-.2.1-.1.2-.3.2-.1 0-.2.1-.2.2v.3c0 .1 0 .1 0 0M46.4-71.7v.2c-.1.1-.1.1-.2.1-.1.1-.1.3-.1.4-.2.1 0 .2 0 .3v.2c0 .1 0 .3.1.4.1.2.3.4.4.5.2.1.4.6.6.6.2 0 .4-.1.5-.1.2 0 .4 0 .6-.1.2-.1.1-.3.3-.5.1-.1.3 0 .4-.1.2-.1.3-.3.4-.5v-.2c0-.1.1-.2.1-.3 0-.1-.1-.1-.1-.2v-.3c0-.2 0-.4-.1-.5-.4-.7-1.2-.9-2-.8-.2 0-.3.1-.4.2-.2.1-.1.2-.3.2-.1 0-.2.1-.2.2v.3c0 .1 0 .1 0 0M38.8-71.7v.2c-.1.1-.1.1-.2.1-.1.1-.1.3-.1.4-.2.1 0 .2 0 .3v.2c0 .1 0 .3.1.4.1.2.3.4.4.5.2.1.4.6.6.6.2 0 .4-.1.5-.1.2 0 .4 0 .6-.1.2-.1.1-.3.3-.5.1-.1.3 0 .4-.1.2-.1.3-.3.4-.5v-.2c0-.1.1-.2.1-.3 0-.1-.1-.1-.1-.2v-.3c0-.2 0-.4-.1-.5-.4-.7-1.2-.9-2-.8-.2 0-.3.1-.4.2-.2.1-.1.2-.3.2-.1 0-.2.1-.2.2v.3c0 .1 0 .1 0 0M31.1-71.7v.2c-.1.1-.1.1-.2.1-.1.1-.1.3-.1.4-.2.1 0 .2 0 .3v.2c0 .1 0 .3.1.4.1.2.3.4.4.5.2.1.4.6.6.6.2 0 .4-.1.5-.1.2 0 .4 0 .6-.1.2-.1.1-.3.3-.5.1-.1.3 0 .4-.1.2-.1.3-.3.4-.5v-.2c0-.1.1-.2.1-.3 0-.1-.1-.1-.1-.2v-.3c0-.2 0-.4-.1-.5-.4-.7-1.2-.9-2-.8-.2 0-.3.1-.4.2-.2.1-.1.2-.3.2-.1 0-.2.1-.2.2v.3c0 .1 0 .1 0 0M23.4-71.7v.2c-.1.1-.1.1-.2.1-.1.1-.1.3-.1.4-.2.1 0 .2 0 .3v.2c0 .1 0 .3.1.4.1.2.3.4.4.5.2.1.4.6.6.6.2 0 .4-.1.5-.1.2 0 .4 0 .6-.1.2-.1.1-.3.3-.5.1-.1.3 0 .4-.1.2-.1.3-.3.4-.5v-.2c0-.1.1-.2.1-.3 0-.1-.1-.1-.1-.2v-.3c0-.2 0-.4-.1-.5-.4-.7-1.2-.9-2-.8-.2 0-.3.1-.4.2-.2.1-.1.2-.3.2-.1 0-.2.1-.2.2v.3c0 .1 0 .1 0 0M15.8-71.7v.2c-.1.1-.1.1-.2.1-.1.1-.1.3-.1.4-.2.1 0 .2 0 .3v.2c0 .1 0 .3.1.4.1.2.3.4.4.5.2.1.4.6.6.6.2 0 .4-.1.5-.1.2 0 .4 0 .6-.1.2-.1.1-.3.3-.5.1-.1.3 0 .4-.1.2-.1.3-.3.4-.5v-.2c0-.1.1-.2.1-.3 0-.1-.1-.1-.1-.2v-.3c0-.2 0-.4-.1-.5-.4-.7-1.2-.9-2-.8-.2 0-.3.1-.4.2-.2.1-.1.2-.3.2-.1 0-.2.1-.2.2v.3c0 .1 0 .1 0 0M8.1-71.7v.2l-.2.2c-.1.1-.1.3-.1.4-.2.1 0 .2 0 .3v.2c0 .1 0 .3.1.4.1.2.3.4.4.5.2.1.4.6.6.6.2 0 .4-.1.5-.1.2 0 .4 0 .6-.1.2-.1.1-.3.3-.5.1-.1.3 0 .4-.1.2-.1.3-.3.4-.5v-.2c0-.1.1-.2.1-.3 0-.1-.1-.1-.1-.2v-.3c0-.2 0-.4-.1-.5-.4-.7-1.2-.9-2-.8-.2 0-.3.1-.4.2-.2.1-.1.2-.3.2-.1 0-.2.1-.2.2v.2c0 .1 0 .1 0 0M.4-71.7v.2c-.1.1-.1.1-.2.1-.1.1-.1.3-.1.4-.2.1 0 .2 0 .3v.2c0 .1 0 .3.1.4.1.2.3.4.4.5.2.2.4.6.6.7.2 0 .4-.1.5-.1.2 0 .4 0 .6-.1.2-.1.1-.3.3-.5.1-.1.3 0 .4-.1.2-.1.3-.3.4-.5v-.2c0-.1.1-.2.1-.3 0-.1-.1-.1-.1-.2v-.3c0-.2 0-.4-.1-.5-.4-.7-1.2-.9-2-.8-.2 0-.3.1-.4.2-.2.1-.1.2-.3.2-.1 0-.2.1-.2.2v.2c0 .1 0 .1 0 0"/></g><path fill="#fff" d="M69.4-71.7v.2c-.1.1-.1.1-.2.1-.1.1-.1.3-.1.4-.2.1 0 .2 0 .3v.2c0 .1 0 .3.1.4.1.2.3.4.4.5.2.1.4.6.6.6.2 0 .4-.1.5-.1.2 0 .4 0 .6-.1.2-.1.1-.3.3-.5.1-.1.3 0 .4-.1.2-.1.3-.3.4-.5v-.2c0-.1.1-.2.1-.3 0-.1-.1-.1-.1-.2v-.3c0-.2 0-.4-.1-.5-.4-.7-1.2-.9-2-.8-.2 0-.3.1-.4.2-.2.1-.1.2-.3.2-.1 0-.2.1-.2.2v.3c0 .1 0 .1 0 0M.5-71.7v.2c-.1.1-.1.1-.2.1-.1.1-.1.3-.1.4-.2.1 0 .2 0 .3v.2c0 .1 0 .3.1.4.1.2.3.4.4.5.2.2.3.6.6.7.2 0 .4-.1.5-.1.2 0 .4 0 .6-.1.2-.1.1-.3.3-.5.1-.1.3 0 .4-.1.2-.1.3-.3.4-.5v-.2c0-.1.1-.2.1-.3 0-.1-.1-.1-.1-.2v-.3c0-.2 0-.4-.1-.5-.4-.7-1.2-.9-2-.8-.2 0-.3.1-.4.2-.2.1-.1.2-.3.2-.1 0-.2.1-.2.2v.2c0 .1 0 .1 0 0"/><g fill="#fff"><path d="M69.4-64v.2c-.1.1-.1.1-.2.1-.1.1-.1.3-.1.4-.2.1 0 .2 0 .3v.2c0 .1 0 .3.1.4.1.2.3.4.4.5.2.1.4.6.6.6.2 0 .4-.1.5-.1.2 0 .4 0 .6-.1.2-.1.1-.3.3-.5.1-.1.3 0 .4-.1.2-.1.3-.3.4-.5v-.2c0-.1.1-.2.1-.3 0-.1-.1-.1-.1-.2v-.3c0-.2 0-.4-.1-.5-.4-.7-1.2-.9-2-.8-.2 0-.3.1-.4.2-.2.1-.1.2-.3.2-.1 0-.2.1-.2.2v.3M61.8-64v.2c-.1.1-.1.1-.2.1-.1.1-.1.3-.1.4-.2.1 0 .2 0 .3v.2c0 .1 0 .3.1.4.1.2.3.4.4.5.2.1.4.6.6.6.2 0 .4-.1.5-.1.2 0 .4 0 .6-.1.2-.1.1-.3.3-.5.1-.1.3 0 .4-.1.2-.1.3-.3.4-.5v-.2c0-.1.1-.2.1-.3 0-.1-.1-.1-.1-.2v-.3c0-.2 0-.4-.1-.5-.4-.7-1.2-.9-2-.8-.2 0-.3.1-.4.2-.2.1-.1.2-.3.2-.1 0-.2.1-.2.2v.3M54.1-64v.2c-.1.1-.1.1-.2.1-.1.1-.1.3-.1.4-.2.1 0 .2 0 .3v.2c0 .1 0 .3.1.4.1.2.3.4.4.5.2.1.4.6.6.6.2 0 .4-.1.5-.1.2 0 .4 0 .6-.1.2-.1.1-.3.3-.5.1-.1.3 0 .4-.1.2-.1.3-.3.4-.5v-.2c0-.1.1-.2.1-.3 0-.1-.1-.1-.1-.2v-.3c0-.2 0-.4-.1-.5-.4-.7-1.2-.9-2-.8-.2 0-.3.1-.4.2-.2.1-.1.2-.3.2-.1 0-.2.1-.2.2v.3M46.5-64v.2c-.1.1-.1.1-.2.1-.1.1-.1.3-.1.4-.2.1 0 .2 0 .3v.2c0 .1 0 .3.1.4.1.2.3.4.4.5.2.1.4.6.6.6.2 0 .4-.1.5-.1.2 0 .4 0 .6-.1.2-.1.1-.3.3-.5.1-.1.3 0 .4-.1.2-.1.3-.3.4-.5v-.2c0-.1.1-.2.1-.3 0-.1-.1-.1-.1-.2v-.3c0-.2 0-.4-.1-.5-.4-.7-1.2-.9-2-.8-.2 0-.3.1-.4.2-.2.1-.1.2-.3.2-.1 0-.2.1-.2.2v.3M38.8-64v.2c-.1.1-.1.1-.2.1-.1.1-.1.3-.1.4-.2.1 0 .2 0 .3v.2c0 .1 0 .3.1.4.1.2.3.4.4.5.2.1.4.6.6.6.2 0 .4-.1.5-.1.2 0 .4 0 .6-.1.2-.1.1-.3.3-.5.1-.1.3 0 .4-.1.2-.1.3-.3.4-.5v-.2c0-.1.1-.2.1-.3 0-.1-.1-.1-.1-.2v-.3c0-.2 0-.4-.1-.5-.4-.7-1.2-.9-2-.8-.2 0-.3.1-.4.2-.2.1-.1.2-.3.2-.1 0-.2.1-.2.2v.3M31.1-64v.2c-.1.1-.1.1-.2.1-.1.1-.1.3-.1.4-.2.1 0 .2 0 .3v.2c0 .1 0 .3.1.4.1.2.3.4.4.5.2.1.4.6.6.6.2 0 .4-.1.5-.1.2 0 .4 0 .6-.1.2-.1.1-.3.3-.5.1-.1.3 0 .4-.1.2-.1.3-.3.4-.5v-.2c0-.1.1-.2.1-.3 0-.1-.1-.1-.1-.2v-.3c0-.2 0-.4-.1-.5-.4-.7-1.2-.9-2-.8-.2 0-.3.1-.4.2-.2.1-.1.2-.3.2-.1 0-.2.1-.2.2v.3M23.5-64v.2c-.1.1-.1.1-.2.1-.1.1-.1.3-.1.4-.2.1 0 .2 0 .3v.2c0 .1 0 .3.1.4.1.2.3.4.4.5.2.1.4.6.6.6.2 0 .4-.1.5-.1.2 0 .4 0 .6-.1.2-.1.1-.3.3-.5.1-.1.3 0 .4-.1.2-.1.3-.3.4-.5v-.2c0-.1.1-.2.1-.3 0-.1-.1-.1-.1-.2v-.3c0-.2 0-.4-.1-.5-.4-.7-1.2-.9-2-.8-.2 0-.3.1-.4.2-.2.1-.1.2-.3.2-.1 0-.2.1-.2.2v.3M15.8-64v.2c-.1.1-.1.1-.2.1-.1.1-.1.3-.1.4-.2.1 0 .2 0 .3v.2c0 .1 0 .3.1.4.1.2.3.4.4.5.2.1.4.6.6.6.2 0 .4-.1.5-.1.2 0 .4 0 .6-.1.2-.1.1-.3.3-.5.1-.1.3 0 .4-.1.2-.1.3-.3.4-.5v-.2c0-.1.1-.2.1-.3 0-.1-.1-.1-.1-.2v-.3c0-.2 0-.4-.1-.5-.4-.7-1.2-.9-2-.8-.2 0-.3.1-.4.2-.2.1-.1.2-.3.2-.1 0-.2.1-.2.2v.3M8.2-64v.2c-.1.1-.2.1-.2.1-.1.1-.1.3-.1.4-.2.1 0 .2 0 .3v.2c0 .1 0 .3.1.4 0 .2.2.4.3.5.2.1.4.6.6.6.2 0 .4-.1.5-.1.2 0 .4 0 .6-.1.2-.1.1-.3.3-.5.1-.1.3 0 .4-.1.2-.1.3-.3.4-.5v-.2c0-.1.1-.2.1-.3 0-.1-.1-.1-.1-.2v-.3c0-.2 0-.4-.1-.5-.4-.7-1.2-.9-2-.8-.2 0-.3.1-.4.2-.2.1-.1.2-.3.2-.1 0-.2.1-.2.2.1.3.1.2.1.3-.1 0-.1 0 0 0M.5-64v.2c-.1.1-.1.1-.2.1-.1.1-.1.3-.1.4-.2.1 0 .2 0 .3v.2c0 .1 0 .3.1.4.1.2.3.4.4.5.2.1.4.6.6.6.2 0 .4-.1.5-.1.2 0 .4 0 .6-.1.2-.1.1-.3.3-.5.1 0 .3.1.4 0 .2-.1.3-.3.4-.5v-.2c0-.1.1-.2.1-.3 0-.1-.1-.1-.1-.2v-.3c0-.2 0-.4-.1-.5-.4-.7-1.2-.9-2-.8-.2 0-.3.1-.4.2-.2.1-.1.2-.3.2-.1 0-.2.1-.2.2v.2M69.4-56.3v.2c-.1.1-.1.1-.2.1-.1.1-.1.3-.1.4-.2.1 0 .2 0 .3v.2c0 .1 0 .3.1.4.1.2.3.4.4.5.2.1.4.6.6.6.2 0 .4-.1.5-.1.2 0 .4 0 .6-.1.2-.1.1-.3.3-.5.1-.1.3 0 .4-.1.2-.1.3-.3.4-.5v-.2c0-.1.1-.2.1-.3 0-.1-.1-.1-.1-.2v-.3c0-.2 0-.4-.1-.5-.4-.7-1.2-.9-2-.8-.2 0-.3.1-.4.2-.2.1-.1.2-.3.2-.1 0-.2.1-.2.2v.3M61.8-56.3v.2c-.1.1-.1.1-.2.1-.1.1-.1.3-.1.4-.2.1 0 .2 0 .3v.2c0 .1 0 .3.1.4.1.2.3.4.4.5.2.1.4.6.6.6.2 0 .4-.1.5-.1.2 0 .4 0 .6-.1.2-.1.1-.3.3-.5.1-.1.3 0 .4-.1.2-.1.3-.3.4-.5v-.2c0-.1.1-.2.1-.3 0-.1-.1-.1-.1-.2v-.3c0-.2 0-.4-.1-.5-.4-.7-1.2-.9-2-.8-.2 0-.3.1-.4.2-.2.1-.1.2-.3.2-.1 0-.2.1-.2.2v.3M54.1-56.3v.2c-.1 0-.1 0-.2.1s-.1.3-.1.4c-.2.1 0 .2 0 .3v.2c0 .1 0 .3.1.4.1.2.3.4.4.5.2.1.4.6.6.6.2 0 .4-.1.5-.1.2 0 .4 0 .6-.1.2-.1.1-.3.3-.5.1-.1.3 0 .4-.1.2-.1.3-.3.4-.5v-.2c0-.1.1-.2.1-.3 0-.1-.1-.1-.1-.2v-.3c0-.2 0-.4-.1-.5-.4-.7-1.2-.9-2-.8-.2 0-.3.1-.4.2-.2.1-.1.2-.3.2-.1 0-.2.1-.2.2v.3M46.5-56.3v.2c-.1.1-.1.1-.2.1-.1.1-.1.3-.1.4-.2.1 0 .2 0 .3v.2c0 .1 0 .3.1.4.1.2.3.4.4.5.2.1.4.6.6.6.2 0 .4-.1.5-.1.2 0 .4 0 .6-.1.2-.1.1-.3.3-.5.1-.1.3 0 .4-.1.2-.1.3-.3.4-.5v-.2c0-.1.1-.2.1-.3 0-.1-.1-.1-.1-.2v-.3c0-.2 0-.4-.1-.5-.4-.7-1.2-.9-2-.8-.2 0-.3.1-.4.2-.2.1-.1.2-.3.2-.1 0-.2.1-.2.2v.3M38.8-56.3v.2c-.1.1-.1.1-.2.1-.1.1-.1.3-.1.4-.2.1 0 .2 0 .3v.2c0 .1 0 .3.1.4.1.2.3.4.4.5.2.1.4.6.6.6.2 0 .4-.1.5-.1.2 0 .4 0 .6-.1.2-.1.1-.3.3-.5.1-.1.3 0 .4-.1.2-.1.3-.3.4-.5v-.2c0-.1.1-.2.1-.3 0-.1-.1-.1-.1-.2v-.3c0-.2 0-.4-.1-.5-.4-.7-1.2-.9-2-.8-.2 0-.3.1-.4.2-.2.1-.1.2-.3.2-.1 0-.2.1-.2.2v.3M31.1-56.3v.2c-.1.1-.1.1-.2.1-.1.1-.1.3-.1.4-.2.1 0 .2 0 .3v.2c0 .1 0 .3.1.4.1.2.3.4.4.5.2.1.4.6.6.6.2 0 .4-.1.5-.1.2 0 .4 0 .6-.1.2-.1.1-.3.3-.5.1-.1.3 0 .4-.1.2-.1.3-.3.4-.5v-.2c0-.1.1-.2.1-.3 0-.1-.1-.1-.1-.2v-.3c0-.2 0-.4-.1-.5-.4-.7-1.2-.9-2-.8-.2 0-.3.1-.4.2-.2.1-.1.2-.3.2-.1 0-.2.1-.2.2v.3M23.5-56.3v.2c-.1.1-.1.1-.2.1-.1.1-.1.3-.1.4-.2.1 0 .2 0 .3v.2c0 .1 0 .3.1.4.1.2.3.4.4.5.2.1.4.6.6.6.2 0 .4-.1.5-.1.2 0 .4 0 .6-.1.2-.1.1-.3.3-.5.1-.1.3 0 .4-.1.2-.1.3-.3.4-.5v-.2c0-.1.1-.2.1-.3 0-.1-.1-.1-.1-.2v-.3c0-.2 0-.4-.1-.5-.4-.7-1.2-.9-2-.8-.2 0-.3.1-.4.2-.2.1-.1.2-.3.2-.1 0-.2.1-.2.2v.3M15.8-56.3v.2c-.1.1-.1.1-.2.1-.1.1-.1.3-.1.4-.2.1 0 .2 0 .3v.2c0 .1 0 .3.1.4.1.2.3.4.4.5.2.1.4.6.6.6.2 0 .4-.1.5-.1.2 0 .4 0 .6-.1.2-.1.1-.3.3-.5.1-.1.3 0 .4-.1.2-.1.3-.3.4-.5v-.2c0-.1.1-.2.1-.3 0-.1-.1-.1-.1-.2v-.3c0-.2 0-.4-.1-.5-.4-.7-1.2-.9-2-.8-.2 0-.3.1-.4.2-.2.1-.1.2-.3.2-.1 0-.2.1-.2.2v.3M8.2-56.3v.2c-.1 0-.2 0-.2.1-.1.1-.1.3-.1.4-.2.1 0 .2 0 .3v.2c0 .1 0 .3.1.4.1.2.3.4.4.5.2.1.4.6.6.6.2 0 .4-.1.5-.1.2 0 .4 0 .6-.1.2-.1.1-.3.3-.5.1-.1.3 0 .4-.1.2-.1.3-.3.4-.5v-.2c0-.1.1-.2.1-.3 0-.1-.1-.1-.1-.2v-.3c0-.2 0-.4-.1-.5-.4-.7-1.2-.9-2-.8-.2 0-.3.1-.4.2-.2.1-.1.2-.3.2-.1 0-.2.1-.2.2v.3c-.1 0-.1 0 0 0M.5-56.3v.2c-.1.1-.1.1-.2.1-.1.1-.1.3-.1.4-.2.1 0 .2 0 .3v.2c0 .1 0 .3.1.4.1.2.3.4.4.5.2.1.4.6.6.6.2 0 .4-.1.5-.1.2 0 .4 0 .6-.1.2-.1.1-.3.3-.5.1-.1.3 0 .4-.1.2-.1.3-.3.4-.5v-.2c0-.1.1-.2.1-.3 0-.1-.1-.1-.1-.2v-.3c0-.2 0-.4-.1-.5-.4-.7-1.2-.9-2-.8-.2 0-.3.1-.4.2-.2.1-.1.2-.3.2-.1 0-.2.1-.2.2v.3M69.4-48.7v.2c-.1.1-.1.1-.2.1-.1.1-.1.3-.1.4-.2.1 0 .2 0 .3v.2c0 .1 0 .3.1.4.1.2.3.4.4.5.2.1.4.6.6.6.2 0 .4-.1.5-.1.2 0 .4 0 .6-.1.2-.1.1-.3.3-.5.1-.1.3 0 .4-.1.2-.1.3-.3.4-.5v-.2c0-.1.1-.2.1-.3 0-.1-.1-.1-.1-.2v-.3c0-.2 0-.4-.1-.5-.4-.7-1.2-.9-2-.8-.2 0-.3.1-.4.2-.2.1-.1.2-.3.2-.1 0-.2.1-.2.2v.3M61.8-48.7v.2c-.1.1-.1.1-.2.1-.1.1-.1.3-.1.4-.2.1 0 .2 0 .3v.2c0 .1 0 .3.1.4.1.2.3.4.4.5.2.1.4.6.6.6.2 0 .4-.1.5-.1.2 0 .4 0 .6-.1.2-.1.1-.3.3-.5.1-.1.3 0 .4-.1.2-.1.3-.3.4-.5v-.2c0-.1.1-.2.1-.3 0-.1-.1-.1-.1-.2v-.3c0-.2 0-.4-.1-.5-.4-.7-1.2-.9-2-.8-.2 0-.3.1-.4.2-.2.1-.1.2-.3.2-.1 0-.2.1-.2.2v.3M54.1-48.7v.2c-.1.1-.1.1-.2.1-.1.1-.1.3-.1.4-.2.1 0 .2 0 .3v.2c0 .1 0 .3.1.4.1.2.3.4.4.5.2.1.4.6.6.6.2 0 .4-.1.5-.1.2 0 .4 0 .6-.1.2-.1.1-.3.3-.5.1-.1.3 0 .4-.1.2-.1.3-.3.4-.5v-.2c0-.1.1-.2.1-.3 0-.1-.1-.1-.1-.2v-.3c0-.2 0-.4-.1-.5-.4-.7-1.2-.9-2-.8-.2 0-.3.1-.4.2-.2.1-.1.2-.3.2-.1 0-.2.1-.2.2v.3M46.5-48.7v.2c-.1.1-.1.1-.2.1-.1.1-.1.3-.1.4-.2.1 0 .2 0 .3v.2c0 .1 0 .3.1.4.1.2.3.4.4.5.2.1.4.6.6.6.2 0 .4-.1.5-.1.2 0 .4 0 .6-.1.2-.1.1-.3.3-.5.1-.1.3 0 .4-.1.2-.1.3-.3.4-.5v-.2c0-.1.1-.2.1-.3 0-.1-.1-.1-.1-.2v-.3c0-.2 0-.4-.1-.5-.4-.7-1.2-.9-2-.8-.2 0-.3.1-.4.2-.2.1-.1.2-.3.2-.1 0-.2.1-.2.2v.3M38.8-48.7v.2c-.1.1-.1.1-.2.1-.1.1-.1.3-.1.4-.2.1 0 .2 0 .3v.2c0 .1 0 .3.1.4.1.2.3.4.4.5.2.1.4.6.6.6.2 0 .4-.1.5-.1.2 0 .4 0 .6-.1.2-.1.1-.3.3-.5.1-.1.3 0 .4-.1.2-.1.3-.3.4-.5v-.2c0-.1.1-.2.1-.3 0-.1-.1-.1-.1-.2v-.3c0-.2 0-.4-.1-.5-.4-.7-1.2-.9-2-.8-.2 0-.3.1-.4.2-.2.1-.1.2-.3.2-.1 0-.2.1-.2.2v.3M31.1-48.7v.2c-.1.1-.1.1-.2.1-.1.1-.1.3-.1.4-.2.1 0 .2 0 .3v.2c0 .1 0 .3.1.4.1.2.3.4.4.5.2.1.4.6.6.6.2 0 .4-.1.5-.1.2 0 .4 0 .6-.1.2-.1.1-.3.3-.5.1-.1.3 0 .4-.1.2-.1.3-.3.4-.5v-.2c0-.1.1-.2.1-.3 0-.1-.1-.1-.1-.2v-.3c0-.2 0-.4-.1-.5-.4-.7-1.2-.9-2-.8-.2 0-.3.1-.4.2-.2.1-.1.2-.3.2-.1 0-.2.1-.2.2v.3M23.5-48.7v.2c-.1.1-.1.1-.2.1-.1.1-.1.3-.1.4-.2.1 0 .2 0 .3v.2c0 .1 0 .3.1.4.1.2.3.4.4.5.2.1.4.6.6.6.2 0 .4-.1.5-.1.2 0 .4 0 .6-.1.2-.1.1-.3.3-.5.1-.1.3 0 .4-.1.2-.1.3-.3.4-.5v-.2c0-.1.1-.2.1-.3 0-.1-.1-.1-.1-.2v-.3c0-.2 0-.4-.1-.5-.4-.7-1.2-.9-2-.8-.2 0-.3.1-.4.2-.2.1-.1.2-.3.2-.1 0-.2.1-.2.2v.3M15.8-48.7v.2c-.1.1-.1.1-.2.1-.1.1-.1.3-.1.4-.2.1 0 .2 0 .3v.2c0 .1 0 .3.1.4.1.2.3.4.4.5.2.1.4.6.6.6.2 0 .4-.1.5-.1.2 0 .4 0 .6-.1.2-.1.1-.3.3-.5.1-.1.3 0 .4-.1.2-.1.3-.3.4-.5v-.2c0-.1.1-.2.1-.3 0-.1-.1-.1-.1-.2v-.3c0-.2 0-.4-.1-.5-.4-.7-1.2-.9-2-.8-.2 0-.3.1-.4.2-.2.1-.1.2-.3.2-.1 0-.2.1-.2.2v.3M8.2-48.7v.2c-.1.1-.2.1-.2.1-.1.1-.1.3-.1.4-.2.1 0 .2 0 .3v.2c0 .1 0 .3.1.4.1.2.3.4.4.5.1.2.3.6.5.6s.4-.1.5-.1c.2 0 .4 0 .6-.1.2-.1.1-.3.3-.5.1-.1.3 0 .4-.1.2-.1.3-.3.4-.5v-.2c0-.1.1-.2.1-.3 0-.1-.1-.1-.1-.2v-.3c0-.2 0-.4-.1-.5-.4-.7-1.2-.9-2-.8-.2 0-.3.1-.4.2-.2.1-.1.2-.3.2-.1 0-.2.1-.2.2.1.3.1.2.1.3-.1 0-.1 0 0 0M.5-48.7v.2c-.1.1-.1.1-.2.1-.1.1-.1.3-.1.4-.2.1 0 .2 0 .3v.2c0 .1 0 .3.1.4.1.2.3.4.4.5.2.2.3.6.6.6.2 0 .4-.1.5-.1.2 0 .4 0 .6-.1.2-.1.1-.3.3-.5.1-.1.3 0 .4-.1.2-.1.3-.3.4-.5v-.2c0-.1.1-.2.1-.3 0-.1-.1-.1-.1-.2v-.3c0-.2 0-.4-.1-.5-.4-.7-1.2-.9-2-.8-.2 0-.3.1-.4.2-.2.1-.1.2-.3.2-.1 0-.2.1-.2.2v.3M69.4-41v.2c-.1.1-.1.1-.2.1-.1.1-.1.3-.1.4-.2.1 0 .2 0 .3v.2c0 .1 0 .3.1.4.1.2.3.4.4.5.2.1.4.6.6.6.2 0 .4-.1.5-.1.2 0 .4 0 .6-.1.2-.1.1-.3.3-.5.1-.1.3 0 .4-.1.2-.1.3-.3.4-.5v-.2c0-.1.1-.2.1-.3 0-.1-.1-.1-.1-.2v-.3c0-.2 0-.4-.1-.5-.4-.7-1.2-.9-2-.8-.2 0-.3.1-.4.2-.2.1-.1.2-.3.2-.1 0-.2.1-.2.2v.3M61.8-41v.2c-.1.1-.1.1-.2.1-.1.1-.1.3-.1.4-.2.1 0 .2 0 .3v.2c0 .1 0 .3.1.4.1.2.3.4.4.5.2.1.4.6.6.6.2 0 .4-.1.5-.1.2 0 .4 0 .6-.1.2-.1.1-.3.3-.5.1-.1.3 0 .4-.1.2-.1.3-.3.4-.5v-.2c0-.1.1-.2.1-.3 0-.1-.1-.1-.1-.2v-.3c0-.2 0-.4-.1-.5-.4-.7-1.2-.9-2-.8-.2 0-.3.1-.4.2-.2.1-.1.2-.3.2-.1 0-.2.1-.2.2v.3M54.1-41v.2c-.1.1-.1.1-.2.1-.1.1-.1.3-.1.4-.2.1 0 .2 0 .3v.2c0 .1 0 .3.1.4.1.2.3.4.4.5.2.1.4.6.6.6.2 0 .4-.1.5-.1.2 0 .4 0 .6-.1.2-.1.1-.3.3-.5.1-.1.3 0 .4-.1.2-.1.3-.3.4-.5v-.2c0-.1.1-.2.1-.3 0-.1-.1-.1-.1-.2v-.3c0-.2 0-.4-.1-.5-.4-.7-1.2-.9-2-.8-.2 0-.3.1-.4.2-.2.1-.1.2-.3.2-.1 0-.2.1-.2.2v.3M46.5-41v.2c-.1.1-.1.1-.2.1-.1.1-.1.3-.1.4-.2.1 0 .2 0 .3v.2c0 .1 0 .3.1.4.1.2.3.4.4.5.2.1.4.6.6.6.2 0 .4-.1.5-.1.2 0 .4 0 .6-.1.2-.1.1-.3.3-.5.1-.1.3 0 .4-.1.2-.1.3-.3.4-.5v-.2c0-.1.1-.2.1-.3 0-.1-.1-.1-.1-.2v-.3c0-.2 0-.4-.1-.5-.4-.7-1.2-.9-2-.8-.2 0-.3.1-.4.2-.2.1-.1.2-.3.2-.1 0-.2.1-.2.2v.3M38.8-41v.2c-.1.1-.1.1-.2.1-.1.1-.1.3-.1.4-.2.1 0 .2 0 .3v.2c0 .1 0 .3.1.4.1.2.3.4.4.5.2.1.4.6.6.6.2 0 .4-.1.5-.1.2 0 .4 0 .6-.1.2-.1.1-.3.3-.5.1-.1.3 0 .4-.1.2-.1.3-.3.4-.5v-.2c0-.1.1-.2.1-.3 0-.1-.1-.1-.1-.2v-.3c0-.2 0-.4-.1-.5-.4-.7-1.2-.9-2-.8-.2 0-.3.1-.4.2-.2.1-.1.2-.3.2-.1 0-.2.1-.2.2v.3M31.1-41v.2c-.1.1-.1.1-.2.1-.1.1-.1.3-.1.4-.2.1 0 .2 0 .3v.2c0 .1 0 .3.1.4.1.2.3.4.4.5.2.1.4.6.6.6.2 0 .4-.1.5-.1.2 0 .4 0 .6-.1.2-.1.1-.3.3-.5.1-.1.3 0 .4-.1.2-.1.3-.3.4-.5v-.2c0-.1.1-.2.1-.3 0-.1-.1-.1-.1-.2v-.3c0-.2 0-.4-.1-.5-.4-.7-1.2-.9-2-.8-.2 0-.3.1-.4.2-.2.1-.1.2-.3.2-.1 0-.2.1-.2.2v.3M23.5-41v.2c-.1.1-.1.1-.2.1-.1.1-.1.3-.1.4-.2.1 0 .2 0 .3v.2c0 .1 0 .3.1.4.1.2.3.4.4.5.2.1.4.6.6.6.2 0 .4-.1.5-.1.2 0 .4 0 .6-.1.2-.1.1-.3.3-.5.1-.1.3 0 .4-.1.2-.1.3-.3.4-.5v-.2c0-.1.1-.2.1-.3 0-.1-.1-.1-.1-.2v-.3c0-.2 0-.4-.1-.5-.4-.7-1.2-.9-2-.8-.2 0-.3.1-.4.2-.2.1-.1.2-.3.2-.1 0-.2.1-.2.2v.3M15.8-41v.2c-.1.1-.1.1-.2.1-.1.1-.1.3-.1.4-.2.1 0 .2 0 .3v.2c0 .1 0 .3.1.4.1.2.3.4.4.5.2.1.4.6.6.6.2 0 .4-.1.5-.1.2 0 .4 0 .6-.1.2-.1.1-.3.3-.5.1-.1.3 0 .4-.1.2-.1.3-.3.4-.5v-.2c0-.1.1-.2.1-.3 0-.1-.1-.1-.1-.2v-.3c0-.2 0-.4-.1-.5-.4-.7-1.2-.9-2-.8-.2 0-.3.1-.4.2-.2.1-.1.2-.3.2-.1 0-.2.1-.2.2v.3M8.2-41v.2c-.1 0-.2 0-.2.1-.1.1-.1.3-.1.4-.2.1 0 .2 0 .3v.2c0 .1 0 .3.1.4.1.2.3.4.4.5.2.1.4.6.6.6.2 0 .4-.1.5-.1.2 0 .4 0 .6-.1.2-.1.1-.3.3-.5.1-.1.3 0 .4-.1.2-.1.3-.3.4-.5v-.2c0-.1.1-.2.1-.3 0-.1-.1-.1-.1-.2v-.3c0-.2 0-.4-.1-.5-.4-.7-1.2-.9-2-.8-.2 0-.3.1-.4.2-.2.1-.1.2-.3.2-.1 0-.2.1-.2.2v.3c-.1 0-.1 0 0 0M.5-41v.2c-.1.1-.1.1-.2.1-.1.1-.1.3-.1.4-.2.1 0 .2 0 .3v.2c0 .1 0 .3.1.4.1.2.3.4.4.5.2.1.4.6.6.6.2 0 .4-.1.5-.1.2 0 .4 0 .6-.1.2-.1.1-.3.3-.5h.4c.2-.1.3-.3.4-.5v-.2c0-.1.1-.2.1-.3 0-.1-.1-.1-.1-.2v-.3c0-.2 0-.4-.1-.5-.4-.7-1.2-.9-2-.8-.2 0-.3.1-.4.2-.2.1-.1.2-.3.2-.1 0-.2.1-.2.2v.2M69.4-33.4v.2c-.1.1-.1.1-.2.1-.1.1-.1.3-.1.4-.2.1 0 .2 0 .3v.2c0 .1 0 .3.1.4.1.2.3.4.4.5.2.1.4.6.6.6.2 0 .4-.1.5-.1.2 0 .4 0 .6-.1.2-.1.1-.3.3-.5.1-.1.3 0 .4-.1.2-.1.3-.3.4-.5v-.2c0-.1.1-.2.1-.3 0-.1-.1-.1-.1-.2v-.3c0-.2 0-.4-.1-.5-.4-.7-1.2-.9-2-.8-.2 0-.3.1-.4.2-.2.1-.1.2-.3.2-.1 0-.2.1-.2.2v.3M61.8-33.4v.2c-.1.1-.1.1-.2.1-.1.1-.1.3-.1.4-.2.1 0 .2 0 .3v.2c0 .1 0 .3.1.4.1.2.3.4.4.5.2.1.4.6.6.6.2 0 .4-.1.5-.1.2 0 .4 0 .6-.1.2-.1.1-.3.3-.5.1-.1.3 0 .4-.1.2-.1.3-.3.4-.5v-.2c0-.1.1-.2.1-.3 0-.1-.1-.1-.1-.2v-.3c0-.2 0-.4-.1-.5-.4-.7-1.2-.9-2-.8-.2 0-.3.1-.4.2-.2.1-.1.2-.3.2-.1 0-.2.1-.2.2v.3M54.1-33.4v.2c-.1.1-.1.1-.2.1-.1.1-.1.3-.1.4-.2.1 0 .2 0 .3v.2c0 .1 0 .3.1.4.1.2.3.4.4.5.2.1.4.6.6.6.2 0 .4-.1.5-.1.2 0 .4 0 .6-.1.2-.1.1-.3.3-.5.1-.1.3 0 .4-.1.2-.1.3-.3.4-.5v-.2c0-.1.1-.2.1-.3 0-.1-.1-.1-.1-.2v-.3c0-.2 0-.4-.1-.5-.4-.7-1.2-.9-2-.8-.2 0-.3.1-.4.2-.2.1-.1.2-.3.2-.1 0-.2.1-.2.2v.3M46.5-33.4v.2c-.1.1-.1.1-.2.1-.1.1-.1.3-.1.4-.2.1 0 .2 0 .3v.2c0 .1 0 .3.1.4.1.2.3.4.4.5.2.1.4.6.6.6.2 0 .4-.1.5-.1.2 0 .4 0 .6-.1.2-.1.1-.3.3-.5.1-.1.3 0 .4-.1.2-.1.3-.3.4-.5v-.2c0-.1.1-.2.1-.3 0-.1-.1-.1-.1-.2v-.3c0-.2 0-.4-.1-.5-.4-.7-1.2-.9-2-.8-.2 0-.3.1-.4.2-.2.1-.1.2-.3.2-.1 0-.2.1-.2.2v.3M38.8-33.4v.2c-.1.1-.1.1-.2.1-.1.1-.1.3-.1.4-.2.1 0 .2 0 .3v.2c0 .1 0 .3.1.4.1.2.3.4.4.5.2.1.4.6.6.6.2 0 .4-.1.5-.1.2 0 .4 0 .6-.1.2-.1.1-.3.3-.5.1-.1.3 0 .4-.1.2-.1.3-.3.4-.5v-.2c0-.1.1-.2.1-.3 0-.1-.1-.1-.1-.2v-.3c0-.2 0-.4-.1-.5-.4-.7-1.2-.9-2-.8-.2 0-.3.1-.4.2-.2.1-.1.2-.3.2-.1 0-.2.1-.2.2v.3M31.1-33.4v.2c-.1.1-.1.1-.2.1-.1.1-.1.3-.1.4-.2.1 0 .2 0 .3v.2c0 .1 0 .3.1.4.1.2.3.4.4.5.2.1.4.6.6.6.2 0 .4-.1.5-.1.2 0 .4 0 .6-.1.2-.1.1-.3.3-.5.1-.1.3 0 .4-.1.2-.1.3-.3.4-.5v-.2c0-.1.1-.2.1-.3 0-.1-.1-.1-.1-.2v-.3c0-.2 0-.4-.1-.5-.4-.7-1.2-.9-2-.8-.2 0-.3.1-.4.2-.2.1-.1.2-.3.2-.1 0-.2.1-.2.2v.3M23.5-33.4v.2c-.1.1-.1.1-.2.1-.1.1-.1.3-.1.4-.2.1 0 .2 0 .3v.2c0 .1 0 .3.1.4.1.2.3.4.4.5.2.1.4.6.6.6.2 0 .4-.1.5-.1.2 0 .4 0 .6-.1.2-.1.1-.3.3-.5.1-.1.3 0 .4-.1.2-.1.3-.3.4-.5v-.2c0-.1.1-.2.1-.3 0-.1-.1-.1-.1-.2v-.3c0-.2 0-.4-.1-.5-.4-.7-1.2-.9-2-.8-.2 0-.3.1-.4.2-.2.1-.1.2-.3.2-.1 0-.2.1-.2.2v.3M15.8-33.4v.2c-.1.1-.1.1-.2.1-.1.1-.1.3-.1.4-.2.1 0 .2 0 .3v.2c0 .1 0 .3.1.4.1.2.3.4.4.5.2.1.4.6.6.6.2 0 .4-.1.5-.1.2 0 .4 0 .6-.1.2-.1.1-.3.3-.5.1-.1.3 0 .4-.1.2-.1.3-.3.4-.5v-.2c0-.1.1-.2.1-.3 0-.1-.1-.1-.1-.2v-.3c0-.2 0-.4-.1-.5-.4-.7-1.2-.9-2-.8-.2 0-.3.1-.4.2-.2.1-.1.2-.3.2-.1 0-.2.1-.2.2v.3M8.2-33.4v.2c-.1.1-.2.1-.2.1-.1.1-.1.3-.1.4-.2.1 0 .2 0 .3v.2c0 .1 0 .3.1.4.1.2.3.4.4.5.2.1.4.6.6.6.2 0 .4-.1.5-.1.2 0 .4 0 .6-.1.2-.1.1-.3.3-.5.1-.1.3 0 .4-.1.2-.1.3-.3.4-.5v-.2c0-.1.1-.2.1-.3 0-.1-.1-.1-.1-.2v-.3c0-.2 0-.4-.1-.5-.4-.7-1.2-.9-2-.8-.2 0-.3.1-.4.2-.2.1-.1.2-.3.2-.1 0-.2.1-.2.2v.3c-.1 0-.1 0 0 0M.5-33.4v.2c-.1.1-.1.1-.2.1-.1.1-.1.3-.1.4-.2.1 0 .2 0 .3v.2c0 .1 0 .3.1.4.1.2.3.4.4.5.2.1.4.6.6.6.2 0 .4-.1.5-.1.2 0 .4 0 .6-.1.2-.1.1-.3.3-.5.1-.1.3 0 .4-.1.2-.1.3-.3.4-.5v-.2c0-.1.1-.2.1-.3 0-.1-.1-.1-.1-.2v-.3c0-.2 0-.4-.1-.5-.4-.7-1.2-.9-2-.8-.2 0-.3.1-.4.2-.2.1-.1.2-.3.2-.1 0-.2.1-.2.2v.3M69.4-25.7v.2c-.1.1-.1.1-.2.1-.1.1-.1.3-.1.4-.2.1 0 .2 0 .3v.2c0 .1 0 .3.1.4.1.2.3.4.4.5.2.1.4.6.6.6.2 0 .4-.1.5-.1.2 0 .4 0 .6-.1.2-.1.1-.3.3-.5.1-.1.3 0 .4-.1.2-.1.3-.3.4-.5v-.2c0-.1.1-.2.1-.3 0-.1-.1-.1-.1-.2v-.3c0-.2 0-.4-.1-.5-.4-.7-1.2-.9-2-.8-.2 0-.3.1-.4.2-.2.1-.1.2-.3.2-.1 0-.2.1-.2.2v.3M61.8-25.7v.2c-.1.1-.1.1-.2.1-.1.1-.1.3-.1.4-.2.1 0 .2 0 .3v.2c0 .1 0 .3.1.4.1.2.3.4.4.5.2.1.4.6.6.6.2 0 .4-.1.5-.1.2 0 .4 0 .6-.1.2-.1.1-.3.3-.5.1-.1.3 0 .4-.1.2-.1.3-.3.4-.5v-.2c0-.1.1-.2.1-.3 0-.1-.1-.1-.1-.2v-.3c0-.2 0-.4-.1-.5-.4-.7-1.2-.9-2-.8-.2 0-.3.1-.4.2-.2.1-.1.2-.3.2-.1 0-.2.1-.2.2v.3M54.1-25.7v.2c-.1.1-.1.1-.2.1-.1.1-.1.3-.1.4-.2.1 0 .2 0 .3v.2c0 .1 0 .3.1.4.1.2.3.4.4.5.2.1.4.6.6.6.2 0 .4-.1.5-.1.2 0 .4 0 .6-.1.2-.1.1-.3.3-.5.1-.1.3 0 .4-.1.2-.1.3-.3.4-.5v-.2c0-.1.1-.2.1-.3 0-.1-.1-.1-.1-.2v-.3c0-.2 0-.4-.1-.5-.4-.7-1.2-.9-2-.8-.2 0-.3.1-.4.2-.2.1-.1.2-.3.2-.1 0-.2.1-.2.2v.3M46.5-25.7v.2c-.1.1-.1.1-.2.1-.1.1-.1.3-.1.4-.2.1 0 .2 0 .3v.2c0 .1 0 .3.1.4.1.2.3.4.4.5.2.1.4.6.6.6.2 0 .4-.1.5-.1.2 0 .4 0 .6-.1.2-.1.1-.3.3-.5.1-.1.3 0 .4-.1.2-.1.3-.3.4-.5v-.2c0-.1.1-.2.1-.3 0-.1-.1-.1-.1-.2v-.3c0-.2 0-.4-.1-.5-.4-.7-1.2-.9-2-.8-.2 0-.3.1-.4.2-.2.1-.1.2-.3.2-.1 0-.2.1-.2.2v.3M38.8-25.7v.2c-.1.1-.1.1-.2.1-.1.1-.1.3-.1.4-.2.1 0 .2 0 .3v.2c0 .1 0 .3.1.4.1.2.3.4.4.5.2.1.4.6.6.6.2 0 .4-.1.5-.1.2 0 .4 0 .6-.1.2-.1.1-.3.3-.5.1-.1.3 0 .4-.1.2-.1.3-.3.4-.5v-.2c0-.1.1-.2.1-.3 0-.1-.1-.1-.1-.2v-.3c0-.2 0-.4-.1-.5-.4-.7-1.2-.9-2-.8-.2 0-.3.1-.4.2-.2.1-.1.2-.3.2-.1 0-.2.1-.2.2v.3M31.1-25.7v.2c-.1.1-.1.1-.2.1-.1.1-.1.3-.1.4-.2.1 0 .2 0 .3v.2c0 .1 0 .3.1.4.1.2.3.4.4.5.2.1.4.6.6.6.2 0 .4-.1.5-.1.2 0 .4 0 .6-.1.2-.1.1-.3.3-.5.1-.1.3 0 .4-.1.2-.1.3-.3.4-.5v-.2c0-.1.1-.2.1-.3 0-.1-.1-.1-.1-.2v-.3c0-.2 0-.4-.1-.5-.4-.7-1.2-.9-2-.8-.2 0-.3.1-.4.2-.2.1-.1.2-.3.2-.1 0-.2.1-.2.2v.3M23.5-25.7v.2c-.1.1-.1.1-.2.1-.1.1-.1.3-.1.4-.2.1 0 .2 0 .3v.2c0 .1 0 .3.1.4.1.2.3.4.4.5.2.1.4.6.6.6.2 0 .4-.1.5-.1.2 0 .4 0 .6-.1.2-.1.1-.3.3-.5.1-.1.3 0 .4-.1.2-.1.3-.3.4-.5v-.2c0-.1.1-.2.1-.3 0-.1-.1-.1-.1-.2v-.3c0-.2 0-.4-.1-.5-.4-.7-1.2-.9-2-.8-.2 0-.3.1-.4.2-.2.1-.1.2-.3.2-.1 0-.2.1-.2.2v.3M15.8-25.7v.2c-.1.1-.1.1-.2.1-.1.1-.1.3-.1.4-.2.1 0 .2 0 .3v.2c0 .1 0 .3.1.4.1.2.3.4.4.5.2.1.4.6.6.6.2 0 .4-.1.5-.1.2 0 .4 0 .6-.1.2-.1.1-.3.3-.5.1-.1.3 0 .4-.1.2-.1.3-.3.4-.5v-.2c0-.1.1-.2.1-.3 0-.1-.1-.1-.1-.2v-.3c0-.2 0-.4-.1-.5-.4-.7-1.2-.9-2-.8-.2 0-.3.1-.4.2-.2.1-.1.2-.3.2-.1 0-.2.1-.2.2v.3M8.2-25.7v.2c-.1.1-.2 0-.2.1-.1.1-.1.3-.1.4-.2.1 0 .2 0 .3v.2c0 .1 0 .3.1.4 0 .1.2.3.3.5.2.1.4.6.6.6.2 0 .4-.1.5-.1.2 0 .4 0 .6-.1.2-.1.1-.3.3-.5.1-.1.3 0 .4-.1.2-.1.3-.3.4-.5v-.2c0-.1.1-.2.1-.3 0-.1-.1-.1-.1-.2v-.3c0-.2 0-.4-.1-.5-.4-.7-1.2-.9-2-.8-.2 0-.3.1-.4.2-.2.1-.1.2-.3.2-.1 0-.2.1-.2.2.1.2.1.2.1.3-.1 0-.1 0 0 0M.5-25.7v.2c-.1.1-.1.1-.2.1-.1.1-.1.3-.1.4-.2.1 0 .2 0 .3v.2c0 .1 0 .3.1.4.1.2.3.4.4.5.2.1.3.5.6.6.2 0 .4-.1.5-.1.2 0 .4 0 .6-.1.2-.1.1-.3.3-.5.1-.1.3 0 .4-.1.2-.1.3-.3.4-.5v-.2c0-.1.1-.2.1-.3 0-.1-.1-.1-.1-.2v-.3c0-.2 0-.4-.1-.5-.4-.7-1.2-.9-2-.8-.2 0-.3.1-.4.2-.2.1-.1.2-.3.2-.1 0-.2.1-.2.2v.3M69.4-18.1v.2c-.1.1-.1.1-.2.1-.1.1-.1.3-.1.4-.2.1 0 .2 0 .3v.2c0 .1 0 .3.1.4.1.2.3.4.4.5.2.1.4.6.6.6.2 0 .4-.1.5-.1.2 0 .4 0 .6-.1.2-.1.1-.3.3-.5.1-.1.3 0 .4-.1.2-.1.3-.3.4-.5v-.2c0-.1.1-.2.1-.3 0-.1-.1-.1-.1-.2v-.3c0-.2 0-.4-.1-.5-.4-.7-1.2-.9-2-.8-.2 0-.3.1-.4.2-.2.1-.1.2-.3.2-.1 0-.2.1-.2.2v.3c0 .1 0 0 0 0M61.8-18.1v.2c-.1.1-.1.1-.2.1-.1.1-.1.3-.1.4-.2.1 0 .2 0 .3v.2c0 .1 0 .3.1.4.1.2.3.4.4.5.2.1.4.6.6.6.2 0 .4-.1.5-.1.2 0 .4 0 .6-.1.2-.1.1-.3.3-.5.1-.1.3 0 .4-.1.2-.1.3-.3.4-.5v-.2c0-.1.1-.2.1-.3 0-.1-.1-.1-.1-.2v-.3c0-.2 0-.4-.1-.5-.4-.7-1.2-.9-2-.8-.2 0-.3.1-.4.2-.2.1-.1.2-.3.2-.1 0-.2.1-.2.2v.3c0 .1 0 0 0 0M54.1-18.1v.2c-.1.1-.1.1-.2.1-.1.1-.1.3-.1.4-.2.1 0 .2 0 .3v.2c0 .1 0 .3.1.4.1.2.3.4.4.5.2.1.4.6.6.6.2 0 .4-.1.5-.1.2 0 .4 0 .6-.1.2-.1.1-.3.3-.5.1-.1.3 0 .4-.1.2-.1.3-.3.4-.5v-.2c0-.1.1-.2.1-.3 0-.1-.1-.1-.1-.2v-.3c0-.2 0-.4-.1-.5-.4-.7-1.2-.9-2-.8-.2 0-.3.1-.4.2-.2.1-.1.2-.3.2-.1 0-.2.1-.2.2v.3c0 .1 0 0 0 0M46.5-18.1v.2c-.1.1-.1.1-.2.1-.1.1-.1.3-.1.4-.2.1 0 .2 0 .3v.2c0 .1 0 .3.1.4.1.2.3.4.4.5.2.1.4.6.6.6.2 0 .4-.1.5-.1.2 0 .4 0 .6-.1.2-.1.1-.3.3-.5.1-.1.3 0 .4-.1.2-.1.3-.3.4-.5v-.2c0-.1.1-.2.1-.3 0-.1-.1-.1-.1-.2v-.3c0-.2 0-.4-.1-.5-.4-.7-1.2-.9-2-.8-.2 0-.3.1-.4.2-.2.1-.1.2-.3.2-.1 0-.2.1-.2.2v.3c0 .1 0 0 0 0M38.8-18.1v.2c-.1.1-.1.1-.2.1-.1.1-.1.3-.1.4-.2.1 0 .2 0 .3v.2c0 .1 0 .3.1.4.1.2.3.4.4.5.2.1.4.6.6.6.2 0 .4-.1.5-.1.2 0 .4 0 .6-.1.2-.1.1-.3.3-.5.1-.1.3 0 .4-.1.2-.1.3-.3.4-.5v-.2c0-.1.1-.2.1-.3 0-.1-.1-.1-.1-.2v-.3c0-.2 0-.4-.1-.5-.4-.7-1.2-.9-2-.8-.2 0-.3.1-.4.2-.2.1-.1.2-.3.2-.1 0-.2.1-.2.2v.3c0 .1 0 0 0 0M31.1-18.1v.2c-.1.1-.1.1-.2.1-.1.1-.1.3-.1.4-.2.1 0 .2 0 .3v.2c0 .1 0 .3.1.4.1.2.3.4.4.5.2.1.4.6.6.6.2 0 .4-.1.5-.1.2 0 .4 0 .6-.1.2-.1.1-.3.3-.5.1-.1.3 0 .4-.1.2-.1.3-.3.4-.5v-.2c0-.1.1-.2.1-.3 0-.1-.1-.1-.1-.2v-.3c0-.2 0-.4-.1-.5-.4-.7-1.2-.9-2-.8-.2 0-.3.1-.4.2-.2.1-.1.2-.3.2-.1 0-.2.1-.2.2v.3c0 .1 0 0 0 0M23.5-18.1v.2c-.1.1-.1.1-.2.1-.1.1-.1.3-.1.4-.2.1 0 .2 0 .3v.2c0 .1 0 .3.1.4.1.2.3.4.4.5.2.1.4.6.6.6.2 0 .4-.1.5-.1.2 0 .4 0 .6-.1.2-.1.1-.3.3-.5.1-.1.3 0 .4-.1.2-.1.3-.3.4-.5v-.2c0-.1.1-.2.1-.3 0-.1-.1-.1-.1-.2v-.3c0-.2 0-.4-.1-.5-.4-.7-1.2-.9-2-.8-.2 0-.3.1-.4.2-.2.1-.1.2-.3.2-.1 0-.2.1-.2.2v.3c0 .1 0 0 0 0M15.8-18.1v.2c-.1.1-.1.1-.2.1-.1.1-.1.3-.1.4-.2.1 0 .2 0 .3v.2c0 .1 0 .3.1.4.1.2.3.4.4.5.2.1.4.6.6.6.2 0 .4-.1.5-.1.2 0 .4 0 .6-.1.2-.1.1-.3.3-.5.1-.1.3 0 .4-.1.2-.1.3-.3.4-.5v-.2c0-.1.1-.2.1-.3 0-.1-.1-.1-.1-.2v-.3c0-.2 0-.4-.1-.5-.4-.7-1.2-.9-2-.8-.2 0-.3.1-.4.2-.2.1-.1.2-.3.2-.1 0-.2.1-.2.2v.3c0 .1 0 0 0 0M8.2-18.1v.2c-.1.1-.2.1-.2.1-.1.1-.1.3-.1.4-.2.1 0 .2 0 .3v.2c0 .1 0 .3.1.4 0 .2.2.4.3.5.2.1.4.6.6.6.2 0 .4-.1.5-.1.2 0 .4 0 .6-.1.2-.1.1-.3.3-.5.1-.1.3 0 .4-.1.2-.1.3-.3.4-.5v-.2c0-.1.1-.2.1-.3 0-.1-.1-.1-.1-.2v-.3c0-.2 0-.4-.1-.5-.4-.7-1.2-.9-2-.8-.2 0-.3.1-.4.2-.2.1-.1.2-.3.2-.1 0-.2.1-.2.2.1.3.1.2.1.3-.1.1-.1 0 0 0M.5-18.1v.2c-.1.1-.1.1-.2.1-.1.1-.1.3-.1.4-.2.1 0 .2 0 .3v.2c0 .1 0 .3.1.4.1.2.3.4.4.5.2.1.4.6.6.6.2 0 .4-.1.5-.1.2 0 .4 0 .6-.1.2-.1.1-.3.3-.5.1 0 .3.1.4.1.2-.1.3-.3.4-.5v-.2c0-.1.1-.2.1-.3 0-.1-.1-.1-.1-.2v-.3c0-.2 0-.4-.1-.5-.4-.7-1.2-.9-2-.8-.2 0-.3.1-.4.2-.2.1-.1.2-.3.2-.1 0-.2.1-.2.2v.1c0 .1 0 0 0 0M69.4-10.4v.2c-.1.1-.1.1-.2.1-.1.1-.1.3-.1.4-.2.1 0 .2 0 .3v.2c0 .1 0 .3.1.4.1.2.3.4.4.5.2.1.4.6.6.6.2 0 .4-.1.5-.1.2 0 .4 0 .6-.1.2-.1.1-.3.3-.5.1-.1.3 0 .4-.1.2-.1.3-.3.4-.5v-.2c0-.1.1-.2.1-.3 0-.1-.1-.1-.1-.2v-.3c0-.2 0-.4-.1-.5-.4-.7-1.2-.9-2-.8-.2 0-.3.1-.4.2-.2.1-.1.2-.3.2-.1 0-.2.1-.2.2v.3M61.8-10.4v.2c-.1.1-.1.1-.2.1-.1.1-.1.3-.1.4-.2.1 0 .2 0 .3v.2c0 .1 0 .3.1.4.1.2.3.4.4.5.2.1.4.6.6.6.2 0 .4-.1.5-.1.2 0 .4 0 .6-.1.2-.1.1-.3.3-.4.1-.1.3 0 .4-.1.2-.1.3-.3.4-.5v-.2c0-.1.1-.2.1-.3 0-.1-.1-.1-.1-.2v-.3c0-.2 0-.4-.1-.5-.4-.7-1.2-.9-2-.8-.2 0-.3.1-.4.2-.2.1-.1.2-.3.2-.1 0-.2.1-.2.2v.2M54.1-10.4v.2c-.1.1-.1.1-.2.1-.1.1-.1.3-.1.4-.2.1 0 .2 0 .3v.2c0 .1 0 .3.1.4.1.2.3.4.4.5.2.1.4.6.6.6.2 0 .4-.1.5-.1.2 0 .4 0 .6-.1.2-.1.1-.3.3-.5.1-.1.3 0 .4-.1.2-.1.3-.3.4-.5v-.2c0-.1.1-.2.1-.3 0-.1-.1-.1-.1-.2v-.3c0-.2 0-.4-.1-.5-.4-.7-1.2-.9-2-.8-.2 0-.3.1-.4.2-.2.1-.1.2-.3.2-.1 0-.2.1-.2.2v.3M46.5-10.4v.2c-.1.1-.1.1-.2.1-.1.1-.1.3-.1.4-.2.1 0 .2 0 .3v.2c0 .1 0 .3.1.4.1.2.3.4.4.5.2.1.4.6.6.6.2 0 .4-.1.5-.1.2 0 .4 0 .6-.1.2-.1.1-.3.3-.5.1-.1.3 0 .4-.1.2-.1.3-.3.4-.5v-.2c0-.1.1-.2.1-.3 0-.1-.1-.1-.1-.2v-.3c0-.2 0-.4-.1-.5-.4-.7-1.2-.9-2-.8-.2 0-.3.1-.4.2-.2.1-.1.2-.3.2-.1 0-.2.1-.2.2v.3M38.8-10.4v.2c-.1.1-.1.1-.2.1-.1.1-.1.3-.1.4-.2.1 0 .2 0 .3v.2c0 .1 0 .3.1.4.1.2.3.4.4.5.2.1.4.6.6.6.2 0 .4-.1.5-.1.2 0 .4 0 .6-.1.2-.1.1-.3.3-.4.1-.1.3 0 .4-.1.2-.1.3-.3.4-.5v-.2c0-.1.1-.2.1-.3 0-.1-.1-.1-.1-.2v-.3c0-.2 0-.4-.1-.5-.4-.7-1.2-.9-2-.8-.2 0-.3.1-.4.2-.2.1-.1.2-.3.2-.1 0-.2.1-.2.2v.2M31.1-10.4v.2c-.1.1-.1.1-.2.1-.1.1-.1.3-.1.4-.2.1 0 .2 0 .3v.2c0 .1 0 .3.1.4.1.2.3.4.4.5.2.1.4.6.6.6.2 0 .4-.1.5-.1.2 0 .4 0 .6-.1.2-.1.1-.3.3-.5.1-.1.3 0 .4-.1.2-.1.3-.3.4-.5v-.2c0-.1.1-.2.1-.3 0-.1-.1-.1-.1-.2v-.3c0-.2 0-.4-.1-.5-.4-.7-1.2-.9-2-.8-.2 0-.3.1-.4.2-.2.1-.1.2-.3.2-.1 0-.2.1-.2.2v.3M23.5-10.4v.2c-.1.1-.1.1-.2.1-.1.1-.1.3-.1.4-.2.1 0 .2 0 .3v.2c0 .1 0 .3.1.4.1.2.3.4.4.5.2.1.4.6.6.6.2 0 .4-.1.5-.1.2 0 .4 0 .6-.1.2-.1.1-.3.3-.5.1-.1.3 0 .4-.1.2-.1.3-.3.4-.5v-.2c0-.1.1-.2.1-.3 0-.1-.1-.1-.1-.2v-.3c0-.2 0-.4-.1-.5-.4-.7-1.2-.9-2-.8-.2 0-.3.1-.4.2-.2.1-.1.2-.3.2-.1 0-.2.1-.2.2v.3M15.8-10.4v.2c-.1.1-.1.1-.2.1-.1.1-.1.3-.1.4-.2.1 0 .2 0 .3v.2c0 .1 0 .3.1.4.1.2.3.4.4.5.2.1.4.6.6.6.2 0 .4-.1.5-.1.2 0 .4 0 .6-.1.2-.1.1-.3.3-.4.1-.1.3 0 .4-.1.2-.1.3-.3.4-.5v-.2c0-.1.1-.2.1-.3 0-.1-.1-.1-.1-.2v-.3c0-.2 0-.4-.1-.5-.4-.7-1.2-.9-2-.8-.2 0-.3.1-.4.2-.2.1-.1.2-.3.2-.1 0-.2.1-.2.2v.2M8.2-10.4v.2c-.1.1-.2 0-.2.1-.1.1-.1.3-.1.3-.2.1 0 .2 0 .3v.2c0 .1 0 .3.1.4 0 .2.2.4.3.6.2.1.4.6.6.6.2 0 .4-.1.5-.1.2 0 .4 0 .6-.1.2-.1.1-.3.3-.5.1-.1.3 0 .4-.1.2-.1.3-.3.4-.5v-.2c0-.1.1-.2.1-.3 0-.1-.1-.1-.1-.2v-.3c0-.2 0-.4-.1-.5-.4-.7-1.2-.9-2-.8-.2 0-.3.1-.4.2-.2.1-.1.2-.3.2-.1 0-.2.1-.2.2.1.2.1.2.1.3-.1 0-.1 0 0 0M.5-10.4v.2c-.1.1-.1.1-.2.1 0 .1-.1.3-.1.3-.2.1 0 .2 0 .3v.2c0 .1 0 .3.1.4.1.2.3.4.4.5.2.2.3.6.6.7.2 0 .4-.1.5-.1.2 0 .4 0 .6-.1.2-.1.1-.3.3-.4.1-.1.3 0 .4-.1.2-.1.3-.3.4-.5v-.2c0-.1.1-.2.1-.3 0-.1-.1-.1-.1-.2v-.3c0-.2 0-.4-.1-.5-.4-.7-1.2-.9-2-.8-.2 0-.3.1-.4.2-.2.1-.1.2-.3.2-.1 0-.2.1-.2.2v.2"/></g><g fill="#fff"><path d="M69.4-2.8v.2c-.1.1-.1.1-.2.1-.1.1-.1.3-.1.4-.2.1 0 .2 0 .3v.2c0 .1 0 .3.1.4.1.2.3.4.4.5.2.2.4.6.6.7.2 0 .4-.1.5-.1.2 0 .4 0 .6-.1.2-.1.1-.3.3-.5.1-.1.3 0 .4-.1.2-.1.3-.3.4-.5v-.2c0-.1.1-.2.1-.3 0-.1-.1-.1-.1-.2v-.3c0-.2 0-.4-.1-.5-.4-.7-1.2-.9-2-.8-.2 0-.3.1-.4.2-.2.1-.1.2-.3.2-.1 0-.2.1-.2.2v.2c0 .1 0 0 0 0M61.8-2.8v.2c-.1.1-.1.1-.2.1-.1.1-.1.3-.1.4-.2.1 0 .2 0 .3v.2c0 .1 0 .3.1.4 0 .2.2.4.4.5.2.1.4.6.6.6.2 0 .4-.1.5-.1.2 0 .4 0 .6-.1.2-.1.1-.3.3-.5.1-.1.3 0 .4-.1.2-.1.3-.3.4-.5v-.2c0-.1.1-.2.1-.3 0-.1-.1-.1-.1-.2v-.3c0-.2 0-.4-.1-.5-.4-.7-1.2-.9-2-.8-.2 0-.3.1-.4.2-.2.1-.1.2-.3.2-.1 0-.2.1-.2.2v.3c0 .1 0 0 0 0M54.1-2.8v.2c-.1.1-.1.1-.2.1-.1.1-.1.3-.1.4-.2.1 0 .2 0 .3v.2c0 .1 0 .3.1.4.1.2.2.4.4.5.2.1.4.6.6.6.2 0 .4-.1.5-.1.2 0 .4 0 .6-.1.2-.1.1-.3.3-.5.1-.1.3 0 .4-.1.2.1.3-.1.4-.3v-.2c0-.1.1-.2.1-.3 0-.1-.1-.1-.1-.2v-.3c0-.2 0-.4-.1-.5-.4-.7-1.2-.9-2-.8-.2 0-.3.1-.4.2-.2.1-.1.2-.3.2-.1 0-.2.1-.2.2v.1c0 .1 0 0 0 0M46.5-2.8v.2c-.1.1-.1.1-.2.1-.1.1-.1.3-.1.4-.2.1 0 .2 0 .3v.2c0 .1 0 .3.1.4.1.2.3.4.4.5.1.2.3.6.5.7.2 0 .4-.1.5-.1.2 0 .4 0 .6-.1.2-.1.1-.3.3-.5.1-.1.3 0 .4-.1.2-.1.3-.3.4-.5v-.2c0-.1.1-.2.1-.3 0-.1-.1-.1-.1-.2v-.3c0-.2 0-.4-.1-.5-.4-.7-1.2-.9-2-.8-.2 0-.3.1-.4.2-.2.1-.1.2-.3.2-.1 0-.2.1-.2.2.1.2.1.1.1.2M38.8-2.8v.2c-.1.1-.1.1-.2.1-.1.1-.1.3-.1.4-.2.1 0 .2 0 .3v.2c0 .1 0 .3.1.4 0 .2.2.4.4.5.2.1.4.6.6.6.2 0 .4-.1.5-.1.2 0 .4 0 .6-.1.2-.1.1-.3.3-.5.1-.1.3 0 .4-.1.2-.1.3-.3.4-.5v-.2c0-.1.1-.2.1-.3 0-.1-.1-.1-.1-.2v-.3c0-.2 0-.4-.1-.5-.4-.7-1.2-.9-2-.8-.2 0-.3.1-.4.2-.2.1-.1.2-.3.2-.1 0-.2.1-.2.2v.3c0 .1 0 0 0 0M31.1-2.8v.2c-.1.1-.1.1-.2.1-.1.1-.1.3-.1.4-.2.1 0 .2 0 .3v.2c0 .1 0 .3.1.4.1.2.2.4.4.5.2.1.4.6.6.6.2 0 .4-.1.5-.1.2 0 .4 0 .6-.1.2-.1.1-.3.3-.5.1-.1.3 0 .4-.1.2-.1.3-.3.4-.5v-.2c0-.1.1-.2.1-.3 0-.1-.1-.1-.1-.2v-.3c0-.2 0-.4-.1-.5-.4-.7-1.2-.9-2-.8-.2 0-.3.1-.4.2-.2.1-.1.2-.3.2-.1 0-.2.1-.2.2v.3c0 .1 0 0 0 0M23.5-2.8v.2c-.1.1-.1.1-.2.1-.1.1-.1.3-.1.4-.2.1 0 .2 0 .3v.2c0 .1 0 .3.1.4.1.2.3.4.4.5.1.2.3.6.6.7.2 0 .4-.1.5-.1.2 0 .4 0 .6-.1.2-.1.1-.3.3-.5.1-.1.3 0 .4-.1.2-.1.3-.3.4-.5v-.2c0-.1.1-.2.1-.3 0-.1-.1-.1-.1-.2v-.3c0-.2 0-.4-.1-.5-.4-.7-1.2-.9-2-.8-.2 0-.3.1-.4.2-.2.1-.1.2-.3.2-.1 0-.2.1-.2.2v.2c0 .1 0 0 0 0M15.8-2.8v.2c-.1.1-.1.1-.2.1-.1.1-.1.3-.1.4-.2.1 0 .2 0 .3v.2c0 .1 0 .3.1.4.1.2.2.4.4.5.2.1.4.6.6.6.2 0 .4-.1.5-.1.2 0 .4 0 .6-.1.2-.1.1-.3.3-.5.1-.1.3 0 .4-.1.2-.1.3-.3.4-.5v-.2c0-.1.1-.2.1-.3 0-.1-.1-.1-.1-.2v-.3c0-.2 0-.4-.1-.5-.4-.7-1.2-.9-2-.8-.2 0-.3.1-.4.2-.2.1-.1.2-.3.2-.1 0-.2.1-.2.2v.3c0 .1 0 0 0 0M8.2-2.8v.2c-.1.1-.2.1-.2.1-.1.1-.1.3-.1.4-.2.1 0 .2 0 .3v.2c0 .1 0 .3.1.4 0 .2.2.4.3.5.2.2.4.6.6.7.2 0 .4-.1.5-.1.2 0 .4 0 .6-.1.2-.1.1-.3.3-.5.1-.1.3 0 .4-.1.2-.1.3-.3.4-.5v-.2c0-.1.1-.2.1-.3 0-.1-.1-.1-.1-.2v-.3c0-.2 0-.4-.1-.5-.4-.7-1.2-.9-2-.8 0 .1-.2.2-.3.2-.2.1-.1.2-.3.3-.1 0-.2.1-.2.2v.1c-.1.1-.1 0 0 0M.5-2.8v.2c-.1.1-.1.1-.2.1 0 .1-.1.3-.1.4-.2.1 0 .2 0 .3v.2c0 .1 0 .3.1.4 0 .2.2.4.4.5.2.2.3.6.6.7.2 0 .4-.1.5-.1.2 0 .4 0 .6-.1.2-.1.1-.3.3-.5.1-.1.3 0 .4-.1.2 0 .3-.2.4-.4v-.2c0-.1.1-.2.1-.3 0-.1-.1-.1-.1-.2v-.3c0-.2 0-.4-.1-.5-.4-.7-1.2-.9-2-.8-.1 0-.2.1-.4.1-.1.1-.1.2-.3.3-.1 0-.2.1-.2.2v.1c0 .1 0 0 0 0"/></g></pattern><g fill="#fff"><path d="M5.1 36c0 12.2 7.1 22.8 17.4 27.8L7.8 23.4C6.1 27.3 5.1 31.5 5.1 36zM56.8 34.4c0-3.8-1.4-6.5-2.5-8.5-1.6-2.5-3-4.7-3-7.2 0-2.8 2.2-5.5 5.2-5.5h.4C51.4 8.2 44 5.1 36 5.1c-10.8 0-20.3 5.5-25.8 13.9h2c3.2 0 8.2-.4 8.2-.4 1.7-.1 1.9 2.3.2 2.5 0 0-1.7.2-3.5.3L28.3 55l6.8-20.3-4.8-13.2c-1.7-.1-3.2-.3-3.2-.3-1.7-.1-1.5-2.6.2-2.5 0 0 5.1.4 8.1.4 3.2 0 8.2-.4 8.2-.4 1.7-.1 1.9 2.3.2 2.5 0 0-1.7.2-3.5.3l11.2 33.2 3.1-10.3c1.2-4.2 2.2-7.3 2.2-10zM36.5 38.7l-9.3 26.9c2.8.8 5.7 1.3 8.7 1.3 3.6 0 7-.6 10.3-1.8-.1-.1-.2-.3-.2-.4l-9.5-26zM63.1 21.2c.1 1 .2 2 .2 3.2 0 3.1-.6 6.7-2.3 11.1l-9.4 27.3C60.8 57.4 67 47.5 67 36.1c-.1-5.5-1.5-10.5-3.9-14.9zM36 0C16.1 0 0 16.1 0 36s16.1 36 36 36 36-16.1 36-36S55.8 0 36 0zm0 70.3C17.1 70.3 1.7 54.9 1.7 36S17.1 1.7 36 1.7 70.3 17.1 70.3 36 54.9 70.3 36 70.3z"/></g></svg>