<?xml version="1.0" encoding="utf-8"?>
<!-- Generator: Adobe Illustrator 19.0.0, SVG Export Plug-In . SVG Version: 6.00 Build 0)  -->
<svg version="1.1" id="Layer_1" xmlns="http://www.w3.org/2000/svg" xmlns:xlink="http://www.w3.org/1999/xlink" x="0px" y="0px"
	 viewBox="-269 361 72 72" style="enable-background:new -269 361 72 72;" xml:space="preserve">
<style type="text/css">
	.st0{fill:#FFFFFF;}
</style>
<path class="st0" d="M-233,361.9c-19.9,0-36,16.1-36,36c0,15.8,10.2,29.3,24.6,34.2c1.8,0.3,2.3-0.9,2.3-1.8c0-0.9,0-3.2,0-6.1
	c-10,2-12-4.7-12-4.7c-1.8-4.1-4.1-5.3-4.1-5.3c-3.2-2.3,0.3-2,0.3-2c3.5,0.3,5.6,3.8,5.6,3.8c3.2,5.6,8.5,3.8,10.5,2.9
	c0.3-2.3,1.2-3.8,2.3-4.7c-7.9-0.9-16.4-4.1-16.4-17.9c0-3.8,1.5-7,3.8-9.7c-0.6-1.5-1.8-5,0-10c0,0,2.9-0.9,10,3.8
	c2.9-0.9,5.9-1.2,9.1-1.2c2.9,0,6.1,0.3,9.1,1.2c6.7-4.7,10-3.8,10-3.8c1.8,5,0.6,8.5,0.3,9.7c2.3,2.6,3.8,5.9,3.8,9.7
	c0,13.8-8.5,17-16.4,17.9c1.2,1.2,2.3,3.2,2.3,6.7c0,4.7,0,8.8,0,10c0,0.9,0.6,2,2.3,1.8c14.4-4.7,24.6-18.1,24.6-34.2
	C-197,378-213.1,361.9-233,361.9z"/>
</svg>
