<?xml version="1.0" encoding="utf-8"?>
<!-- Generator: Adobe Illustrator 18.1.1, SVG Export Plug-In . SVG Version: 6.00 Build 0)  -->
<!DOCTYPE svg PUBLIC "-//W3C//DTD SVG 1.1//EN" "http://www.w3.org/Graphics/SVG/1.1/DTD/svg11.dtd">
<svg version="1.1" id="Layer_1" xmlns="http://www.w3.org/2000/svg" xmlns:xlink="http://www.w3.org/1999/xlink" x="0px" y="0px"
	 viewBox="0 0 72 72" enable-background="new 0 0 72 72" xml:space="preserve">
<path fill="#FFFFFF" d="M72,13.4c-2.7,1.2-5.7,2-8.6,2.5c3.2-1.7,5.4-4.7,6.6-8.4c-2.9,1.7-6.1,2.9-9.3,3.7
	C58,8.2,54.1,6.5,49.6,6.5c-8.1,0-15,6.6-15,15c0,1.2,0.2,2.2,0.5,3.4C22.9,24.2,11.8,18.3,4.7,9.2c-1.5,2.2-2.2,4.7-2.2,7.6
	c0,5.2,2.7,9.8,6.6,12.3c-2.5,0-4.7-0.7-6.6-2v0.2c0,7.1,5.2,13.3,12,14.5c-1.2,0.2-2.5,0.5-3.9,0.5c-1,0-2,0-2.7-0.2
	c2,5.9,7.4,10.3,14,10.3c-5.2,3.9-11.5,6.4-18.4,6.4c-1.2,0-2.5,0-3.4-0.2c6.1,4.4,14,6.9,22.4,6.9c27.3,0,42.3-22.6,42.3-42.3
	c0-0.7,0-1.2,0-2C67.8,19,70.3,16.6,72,13.4z"/>
</svg>
