<?xml version="1.0" encoding="utf-8"?>
<!-- Generator: Adobe Illustrator 18.1.1, SVG Export Plug-In . SVG Version: 6.00 Build 0)  -->
<!DOCTYPE svg PUBLIC "-//W3C//DTD SVG 1.1//EN" "http://www.w3.org/Graphics/SVG/1.1/DTD/svg11.dtd">
<svg version="1.1" id="Layer_1" xmlns="http://www.w3.org/2000/svg" xmlns:xlink="http://www.w3.org/1999/xlink" x="0px" y="0px"
	 viewBox="0 0 72 72" enable-background="new 0 0 72 72" xml:space="preserve">
<path fill="#FFFFFF" d="M35.8,0c-19.9,0-36,16.1-36,36c0,19.9,16.1,36,36,36c19.9,0,36-16.1,36-36C71.8,16.1,55.7,0,35.8,0z
	 M57,39.2l-18,18c-1.8,1.8-4.6,1.8-6.4,0l-18-18c-0.9-0.9-1.3-2-1.3-3.2c0-1.2,0.4-2.3,1.3-3.2c1.8-1.8,4.6-1.8,6.4,0l10.3,10.3V18
	c0-2.5,2-4.5,4.5-4.5c2.5,0,4.5,2,4.5,4.5v25.1l10.3-10.3c1.8-1.8,4.6-1.8,6.4,0C58.7,34.6,58.7,37.4,57,39.2z"/>
</svg>
