<?xml version="1.0" encoding="utf-8"?>
<!-- Generator: Adobe Illustrator 18.1.1, SVG Export Plug-In . SVG Version: 6.00 Build 0)  -->
<!DOCTYPE svg PUBLIC "-//W3C//DTD SVG 1.1//EN" "http://www.w3.org/Graphics/SVG/1.1/DTD/svg11.dtd">
<svg version="1.1" id="Layer_1" xmlns="http://www.w3.org/2000/svg" xmlns:xlink="http://www.w3.org/1999/xlink" x="0px" y="0px"
	 viewBox="0 0 72 72" enable-background="new 0 0 72 72" xml:space="preserve">
<path fill="#FFFFFF" d="M35.8,24c-6.6,0-12,5.4-12,12s5.4,12,12,12s12-5.4,12-12S42.4,24,35.8,24z M42.9,37.1l-6,6
	c-0.6,0.6-1.5,0.6-2.1,0l-6-6c-0.3-0.3-0.4-0.7-0.4-1.1s0.1-0.8,0.4-1.1c0.6-0.6,1.5-0.6,2.1,0l3.4,3.4V30c0-0.8,0.7-1.5,1.5-1.5
	s1.5,0.7,1.5,1.5v8.4l3.4-3.4c0.6-0.6,1.5-0.6,2.1,0C43.4,35.5,43.4,36.5,42.9,37.1z"/>
</svg>
