<?xml version="1.0" encoding="utf-8"?>
<!-- Generator: Adobe Illustrator 18.1.1, SVG Export Plug-In . SVG Version: 6.00 Build 0)  -->
<!DOCTYPE svg PUBLIC "-//W3C//DTD SVG 1.1//EN" "http://www.w3.org/Graphics/SVG/1.1/DTD/svg11.dtd">
<svg version="1.1" id="Layer_1" xmlns="http://www.w3.org/2000/svg" xmlns:xlink="http://www.w3.org/1999/xlink" x="0px" y="0px"
	 viewBox="0 0 72 72" enable-background="new 0 0 72 72" xml:space="preserve">
<path fill="#FFFFFF" d="M36,0C16.1,0,0,16.1,0,36c0,19.9,16.1,36,36,36s36-16.1,36-36C72,16.1,55.9,0,36,0z M21.5,20h29.1
	c1.1,0,1.3,0.6,0.4,1.3L37.6,32.5c-0.9,0.7-2.2,0.7-3.1,0L21,21.3C20.2,20.6,20.4,20,21.5,20z M58.3,49.6c0,1.3-1.1,2.4-2.3,2.4H16
	c-1.3,0-2.3-1.1-2.3-2.4V22.4c0-1,1.1-1.4,1.8-0.9l18.7,15.6c1,0.8,2.6,0.8,3.6,0l18.7-15.6c0.8-0.6,1.9-0.2,1.9,0.9V49.6z"/>
</svg>
